<svg width="407" height="344" viewBox="0 0 407 344" fill="none" xmlns="http://www.w3.org/2000/svg">
<g clip-path="url(#clip0_190_495)">
<path d="M217.681 48.318C231.183 38.351 250.192 34.5301 265.066 42.3058C248.321 49.5709 234.688 62.5204 226.578 78.8631C223.473 85.1772 220.678 92.523 214.272 95.4412C210.286 97.257 205.582 96.9063 201.454 95.4402C197.327 93.9739 193.655 91.483 190.035 89.0185L188.949 88.8879C195.392 73.3982 204.179 58.285 217.681 48.318Z" fill="#F0F0F0"/>
<path d="M264.946 42.6367C251.059 43.0715 237.661 47.868 226.657 56.3448C224.255 58.1276 222.15 60.2776 220.419 62.7155C218.809 65.1448 217.879 67.9606 217.727 70.8703C217.53 73.5804 217.643 76.3754 216.79 78.9905C216.334 80.3227 215.601 81.5434 214.639 82.5726C213.678 83.6019 212.509 84.4163 211.211 84.9627C208.01 86.4081 204.481 86.6182 201.023 86.7039C197.183 86.7989 193.193 86.8369 189.7 88.6437C189.277 88.8626 188.962 88.1937 189.384 87.9751C195.46 84.8316 202.561 86.8826 208.947 85.0117C211.926 84.1387 214.661 82.363 215.857 79.3921C216.904 76.7942 216.79 73.9119 216.965 71.1661C217.072 68.3255 217.874 65.5543 219.3 63.0945C220.902 60.5764 222.92 58.349 225.27 56.5077C230.493 52.278 236.35 48.8953 242.624 46.4834C249.77 43.6912 257.342 42.141 265.011 41.9001C265.486 41.8854 265.418 42.6221 264.946 42.6367Z" fill="white"/>
<path d="M230.04 53.4068C228.867 51.3688 228.458 48.9806 228.884 46.6687C229.311 44.3568 230.546 42.2718 232.37 40.7861C232.74 40.4867 233.222 41.0471 232.852 41.3469C231.152 42.7273 230.001 44.6696 229.608 46.8232C229.215 48.9768 229.605 51.1999 230.709 53.0912C230.948 53.5025 230.277 53.8158 230.04 53.4068Z" fill="white"/>
<path d="M217.646 69.483C222.277 70.7766 227.227 70.2783 231.507 68.0873C231.931 67.8699 232.246 68.5387 231.823 68.7559C227.364 71.0275 222.213 71.5357 217.396 70.1789C216.937 70.0492 217.189 69.354 217.646 69.483Z" fill="white"/>
<path d="M249.735 44.6707C250.025 45.5537 250.529 46.3512 251.203 46.9914C251.877 47.6315 252.699 48.0944 253.596 48.3385C254.057 48.4623 253.804 49.1574 253.346 49.0344C252.356 48.7602 251.449 48.2478 250.703 47.5422C249.956 46.8365 249.395 45.959 249.066 44.9863C249.028 44.8972 249.024 44.7968 249.057 44.7054C249.09 44.614 249.156 44.5385 249.243 44.4942C249.332 44.4529 249.433 44.4482 249.525 44.4813C249.618 44.5143 249.693 44.5824 249.735 44.6707Z" fill="white"/>
<path d="M276.859 97.8649C276.569 97.7958 276.279 97.7267 275.985 97.6616C272.085 96.7527 268.118 96.1618 264.123 95.8949C263.814 95.8694 263.501 95.8481 263.192 95.8315C253.56 95.291 243.91 96.5423 234.734 99.5217C231.084 100.711 227.53 102.175 224.102 103.903C219.369 106.29 214.426 109.254 209.33 109.919C208.799 109.994 208.264 110.036 207.728 110.045L188.874 90.2216C188.854 90.1551 188.829 90.0926 188.809 90.0258L188.02 89.2687C188.19 89.1673 188.369 89.0657 188.54 88.9643C188.638 88.905 188.741 88.8502 188.84 88.7909C188.907 88.7528 188.974 88.7149 189.033 88.6766C189.055 88.6639 189.078 88.6513 189.095 88.6428C189.154 88.6046 189.212 88.5753 189.266 88.5414C190.265 87.971 191.271 87.4066 192.281 86.8482C192.286 86.8439 192.286 86.8439 192.295 86.844C200.008 82.609 208.143 78.9803 216.571 76.7008C216.825 76.6323 217.082 76.5593 217.345 76.4999C221.149 75.4935 225.029 74.7995 228.947 74.4248C231.093 74.2265 233.247 74.137 235.402 74.1564C240.97 74.2173 246.494 75.153 251.771 76.9292C262.289 80.4716 271.557 87.3362 276.489 97.1141C276.615 97.3643 276.737 97.6103 276.859 97.8649Z" fill="#F0F0F0"/>
<path d="M276.565 98.0593C265.214 90.0511 251.627 85.8204 237.734 85.968C234.742 85.9467 231.766 86.3968 228.915 87.3016C226.166 88.2727 223.727 89.9617 221.852 92.1932C220.062 94.2387 218.468 96.5382 216.212 98.1132C215.045 98.9024 213.724 99.4361 212.336 99.6793C210.949 99.9226 209.525 99.87 208.159 99.5249C204.733 98.7535 201.788 96.7979 198.975 94.7855C195.852 92.5511 192.643 90.1808 188.766 89.5224C188.296 89.4426 188.448 88.7189 188.917 88.7986C195.662 89.9442 200.095 95.8535 206.321 98.2017C209.227 99.2975 212.48 99.5249 215.225 97.8727C217.626 96.4279 219.271 94.058 221.066 91.9713C222.863 89.7676 225.173 88.0372 227.793 86.9312C230.589 85.8843 233.543 85.3204 236.528 85.2637C243.247 85.0291 249.961 85.8515 256.425 87.701C263.813 89.771 270.792 93.0886 277.061 97.5103C277.448 97.7842 276.95 98.3314 276.565 98.0593Z" fill="white"/>
<path d="M242.204 85.6573C242.496 83.3245 243.608 81.1713 245.342 79.5822C247.075 77.9931 249.318 77.0716 251.669 76.9822C252.144 76.9657 252.192 77.7037 251.716 77.7202C249.527 77.7994 247.438 78.658 245.827 80.1411C244.215 81.6242 243.187 83.634 242.929 85.8078C242.872 86.2801 242.148 86.1269 242.204 85.6573Z" fill="white"/>
<path d="M222.623 91.0365C225.542 94.8559 229.794 97.4358 234.531 98.2616C235.001 98.343 234.85 99.0668 234.381 98.9854C229.452 98.1168 225.033 95.4231 222.004 91.4418C221.716 91.0622 222.336 90.6589 222.623 91.0365Z" fill="white"/>
<path d="M263.194 90.5322C262.893 91.4113 262.815 92.3514 262.967 93.268C263.12 94.1845 263.497 95.049 264.067 95.7836C264.36 96.1594 263.739 96.5624 263.448 96.189C262.823 95.3744 262.407 94.4193 262.236 93.4069C262.066 92.3946 262.146 91.356 262.47 90.3817C262.492 90.2873 262.55 90.2052 262.632 90.1519C262.713 90.0987 262.811 90.0783 262.907 90.0951C263.003 90.1155 263.087 90.1728 263.14 90.2547C263.194 90.3366 263.213 90.4363 263.194 90.5322Z" fill="white"/>
<path d="M214.118 63.1459H212.657V23.1491C212.657 20.1091 212.058 17.0989 210.894 14.2903C209.73 11.4817 208.023 8.92981 205.872 6.78021C203.721 4.63062 201.167 2.92548 198.357 1.76213C195.546 0.598775 192.534 1.63887e-06 189.492 0H104.692C101.65 -6.5552e-06 98.638 0.598754 95.8274 1.7621C93.0168 2.92544 90.4631 4.63058 88.3119 6.78017C86.1608 8.92975 84.4544 11.4817 83.2903 14.2903C82.1261 17.0988 81.5269 20.109 81.5269 23.149V242.575C81.5269 248.714 83.9675 254.602 88.3119 258.944C92.6563 263.285 98.5485 265.724 104.692 265.724H189.491C195.635 265.724 201.528 263.285 205.872 258.944C210.216 254.602 212.657 248.714 212.657 242.575V91.6163H214.118V63.1459Z" fill="#3F3D56"/>
<path d="M190.426 6.02248H179.357C179.866 7.26959 180.06 8.62265 179.923 9.96248C179.785 11.3023 179.32 12.5878 178.568 13.7056C177.817 14.8235 176.801 15.7395 175.612 16.3728C174.422 17.0062 173.095 17.3375 171.747 17.3376H123.167C121.819 17.3375 120.492 17.0062 119.303 16.3728C118.113 15.7395 117.098 14.8235 116.346 13.7057C115.594 12.5878 115.129 11.3023 114.991 9.96248C114.854 8.62265 115.048 7.26957 115.557 6.02246H105.219C100.631 6.02246 96.2303 7.84382 92.986 11.0858C89.7416 14.3279 87.919 18.725 87.9189 23.3099V242.414C87.9189 244.684 88.3664 246.932 89.2358 249.029C90.1052 251.127 91.3795 253.033 92.9859 254.638C94.5924 256.243 96.4995 257.516 98.5984 258.385C100.697 259.254 102.947 259.701 105.219 259.701H190.426C192.698 259.701 194.948 259.254 197.047 258.385C199.145 257.516 201.053 256.243 202.659 254.638C204.265 253.033 205.54 251.127 206.409 249.029C207.279 246.932 207.726 244.684 207.726 242.414V23.3099C207.726 18.725 205.903 14.3279 202.659 11.0858C199.415 7.84382 195.014 6.02248 190.426 6.02248Z" fill="white"/>
<path d="M149.46 189.317C143.185 189.323 136.971 188.092 131.173 185.695C125.375 183.298 120.107 179.783 115.67 175.349C111.233 170.915 107.715 165.651 105.317 159.857C102.918 154.063 101.687 147.853 101.692 141.583C101.683 132.779 104.115 124.144 108.718 116.636C113.32 109.128 119.914 103.041 127.767 99.0498C133.459 96.1556 139.674 94.4292 146.045 93.9723C152.415 93.5154 158.813 94.3373 164.861 96.3894C175.572 100.037 184.639 107.365 190.449 117.069C196.258 126.772 198.432 138.222 196.583 149.377C194.734 160.533 188.983 170.671 180.353 177.985C171.723 185.299 160.776 189.315 149.46 189.317ZM149.46 95.7215C142.213 95.7002 135.067 97.4131 128.619 100.717C122.982 103.587 118 107.59 113.985 112.475C109.97 117.36 107.009 123.022 105.288 129.105C103.568 135.188 103.124 141.561 103.985 147.824C104.846 154.086 106.993 160.104 110.292 165.498C113.59 170.892 117.969 175.546 123.154 179.168C128.338 182.791 134.216 185.303 140.418 186.547C146.62 187.792 153.013 187.741 159.195 186.4C165.377 185.058 171.214 182.453 176.341 178.75C178.82 176.963 181.112 174.931 183.182 172.684C189.239 166.136 193.253 157.965 194.733 149.173C196.213 140.38 195.095 131.346 191.517 123.179C187.938 115.011 182.053 108.063 174.583 103.187C167.113 98.3098 158.383 95.7156 149.46 95.7215Z" fill="#F0F0F0"/>
<path d="M45.9546 99.2212C47.2657 99.3854 48.5249 99.835 49.6434 100.538C50.7619 101.241 51.7125 102.181 52.4282 103.291C53.1439 104.401 53.6074 105.654 53.786 106.963C53.9646 108.271 53.8539 109.603 53.4618 110.864L69.3326 124.074L63.6512 135.67L41.5008 116.7C39.4246 115.901 37.7136 114.369 36.6922 112.394C35.6707 110.419 35.4098 108.138 35.9588 105.984C36.5078 103.829 37.8285 101.951 39.6708 100.704C41.5131 99.458 43.7489 98.9303 45.9546 99.2212Z" fill="#FFB6B6"/>
<path d="M194.18 154.312C193.862 150.893 192.546 144.747 191.43 142.474C187.997 133.496 165.819 126.118 162.841 125.167L162.085 116.774L131.271 113.461L127.362 124.193L116.31 128.336C115.559 128.616 114.88 129.058 114.321 129.631C113.762 130.204 113.336 130.893 113.075 131.65L103.16 134.514L93.3751 137.34L59.3821 113.405L57.7772 114.453L47.05 121.448L45.395 122.527L89.385 162.187L105.726 158.355L118.014 155.466L119.063 159.722L116.347 174.672C124.216 182.538 134.632 187.346 145.728 188.232C156.823 189.118 167.871 186.025 176.89 179.508L183.871 173.318C188.736 168.061 192.328 161.757 194.367 154.892L194.18 154.312Z" fill="#E4E4E4"/>
<path d="M156.36 106.598C167.993 102.749 174.3 90.2057 170.449 78.5815C166.598 66.9573 154.046 60.6539 142.413 64.5026C130.781 68.3512 124.473 80.8945 128.324 92.5187C132.176 104.143 144.728 110.446 156.36 106.598Z" fill="#FFB6B6"/>
<path d="M131.861 60.2743C134.018 57.1962 137.255 55.0416 140.929 54.2388C144.561 53.4922 148.341 54.1852 151.472 56.1713C154.876 54.8009 158.547 53.8918 162.153 54.354C165.759 54.8161 169.294 56.829 170.962 60.1452C171.313 61.0042 171.739 61.8308 172.235 62.6153C173.705 64.5752 176.437 64.8295 178.85 64.9236C177.63 65.6346 176.41 66.3455 175.19 67.0564C176.406 67.6225 177.622 68.1887 178.838 68.755C177.183 69.3863 175.528 70.0176 173.873 70.6489C177.725 74.0323 178.657 80.0535 177.198 85.1017C175.817 89.8812 172.652 93.9047 169.117 97.3493C168.427 94.779 169.186 91.9925 169.691 89.3315C170.224 86.5199 170.31 83.2322 168.34 81.2472C167.011 79.9081 165.061 79.5036 163.223 79.1787C153.951 77.5401 144.594 76.4298 135.196 75.8531C133.938 75.6795 132.657 75.8102 131.46 76.2343C129.173 77.2499 128.254 80.039 127.591 82.512C127.274 78.1712 127.527 73.8074 128.345 69.5325C128.972 66.2606 129.96 62.9858 131.861 60.2743Z" fill="#2F2E41"/>
<path d="M160.699 211.806H134.474C133.563 211.806 132.689 211.444 132.045 210.801C131.401 210.157 131.04 209.284 131.04 208.374C131.04 207.464 131.401 206.591 132.045 205.948C132.689 205.304 133.563 204.942 134.474 204.942H160.699C161.61 204.942 162.483 205.304 163.128 205.948C163.772 206.591 164.133 207.464 164.133 208.374C164.133 209.284 163.772 210.157 163.128 210.801C162.483 211.444 161.61 211.806 160.699 211.806Z" fill="#6C63FF"/>
<path d="M74.6439 28.1569H2.50889C1.84417 28.1558 1.20702 27.8912 0.737355 27.4211C0.267694 26.9511 0.00390625 26.314 0.00390625 25.6497C0.00390625 24.9855 0.267694 24.3484 0.737355 23.8783C1.20702 23.4082 1.84417 23.1436 2.50889 23.1426H74.6439C75.3093 23.1426 75.9475 23.4067 76.418 23.8769C76.8885 24.3471 77.1529 24.9848 77.1529 25.6497C77.1529 26.3147 76.8885 26.9524 76.418 27.4225C75.9475 27.8927 75.3093 28.1569 74.6439 28.1569Z" fill="#6C63FF"/>
<path d="M116.292 44.1697H2.50878C1.84341 44.1697 1.20529 43.9056 0.734801 43.4355C0.264314 42.9653 0 42.3276 0 41.6628C0 40.9979 0.264314 40.3602 0.734801 39.89C1.20529 39.4199 1.84341 39.1558 2.50878 39.1558H116.292C116.958 39.1558 117.596 39.4199 118.066 39.89C118.537 40.3602 118.801 40.9979 118.801 41.6628C118.801 42.3276 118.537 42.9653 118.066 43.4355C117.596 43.9056 116.958 44.1697 116.292 44.1697Z" fill="#6C63FF"/>
<path d="M94.4267 59.2557H2.50878C1.84341 59.2557 1.20529 58.9916 0.734801 58.5214C0.264314 58.0513 0 57.4136 0 56.7487C0 56.0838 0.264314 55.4461 0.734801 54.976C1.20529 54.5058 1.84341 54.2417 2.50878 54.2417H94.4267C95.092 54.2417 95.7301 54.5058 96.2006 54.976C96.6711 55.4461 96.9354 56.0838 96.9354 56.7487C96.9354 57.4136 96.6711 58.0513 96.2006 58.5214C95.7301 58.9916 95.092 59.2557 94.4267 59.2557Z" fill="#CACACA"/>
<path d="M54.3406 74.286H2.50878C1.84341 74.286 1.20529 74.0218 0.734801 73.5517C0.264314 73.0815 0 72.4439 0 71.779C0 71.1141 0.264314 70.4764 0.734801 70.0063C1.20529 69.5361 1.84341 69.272 2.50878 69.272H54.3406C55.006 69.272 55.6441 69.5361 56.1146 70.0063C56.5851 70.4764 56.8494 71.1141 56.8494 71.779C56.8494 72.4439 56.5851 73.0815 56.1146 73.5517C55.6441 74.0218 55.006 74.286 54.3406 74.286Z" fill="#CACACA"/>
<path d="M82.9737 89.3148H2.50872C1.84404 89.3137 1.20695 89.0491 0.737317 88.5791C0.267684 88.1091 0.00390625 87.472 0.00390625 86.8078C0.00390625 86.1436 0.267684 85.5065 0.737317 85.0364C1.20695 84.5664 1.84404 84.3018 2.50872 84.3008H82.9737C83.6383 84.3018 84.2754 84.5664 84.7451 85.0364C85.2147 85.5065 85.4785 86.1436 85.4785 86.8078C85.4785 87.472 85.2147 88.1091 84.7451 88.5791C84.2754 89.0491 83.6383 89.3137 82.9737 89.3148Z" fill="#CACACA"/>
<path d="M309.746 334.589L303.281 334.588L300.205 309.668L309.747 309.669L309.746 334.589Z" fill="#9F616A"/>
<path d="M312.29 343.529L287.606 343.528V343.216C287.607 340.67 288.619 338.228 290.421 336.428C292.222 334.628 294.666 333.616 297.214 333.616H297.215L301.723 330.198L310.136 333.616L312.29 333.617L312.29 343.529Z" fill="#2F2E41"/>
<path d="M305.979 217.469L303.128 182.727L300.888 169.687L313.429 166.919L317.591 184.772L313.965 218.433C314.697 219.329 315.143 220.423 315.248 221.574C315.353 222.725 315.111 223.882 314.553 224.894C313.995 225.907 313.146 226.73 312.117 227.257C311.087 227.784 309.924 227.992 308.775 227.853C307.627 227.715 306.546 227.236 305.672 226.479C304.798 225.722 304.17 224.721 303.869 223.605C303.569 222.488 303.609 221.308 303.985 220.214C304.361 219.121 305.055 218.165 305.979 217.469Z" fill="#9F616A"/>
<path d="M275.403 334.589L268.938 334.588L265.862 309.668L275.405 309.669L275.403 334.589Z" fill="#9F616A"/>
<path d="M265.057 225.345L262.191 230.299C262.191 230.299 259.041 231.159 260.07 241.418C261.1 251.676 261.144 312.456 266.126 319.935L267.027 326.358L276.435 327.256L276.673 321.557L287.89 242.386C287.89 242.386 294.497 320.107 299.963 322.009L301.937 328.484L310.558 328.488L310.049 320.857L310.605 224.542L265.057 225.345Z" fill="#2F2E41"/>
<path d="M261.905 229.922L261.707 229.871C267.623 207.76 265.916 179.128 261.739 148.383L261.739 148.255L276.84 134.434H289.953L302.952 142.817C311.355 147.016 313.265 155.907 313.283 155.997L313.296 156.06L308.147 174.02L312.026 225.962L312.031 226.022L312.009 226.078C310.753 229.259 307.389 228.806 303.494 228.281C299.605 227.757 285.276 232.548 280.882 232.548C272.296 232.548 262.519 230.079 261.905 229.922Z" fill="#E4E4E4"/>
<path d="M300.229 149.817L305.863 147.369L313.284 156.462L319.3 185.599L298.694 182.48L300.229 149.817Z" fill="#E4E4E4"/>
<path d="M213.586 203.548L239.338 180.033L248.288 170.283L258.153 178.501L246.571 192.715L217.711 210.449C217.449 211.575 216.857 212.598 216.01 213.385C215.163 214.172 214.1 214.688 212.957 214.867C211.814 215.046 210.643 214.879 209.596 214.388C208.549 213.897 207.672 213.105 207.079 212.112C206.486 211.12 206.204 209.973 206.268 208.818C206.332 207.664 206.74 206.555 207.44 205.635C208.139 204.714 209.098 204.023 210.193 203.651C211.289 203.28 212.47 203.243 213.586 203.548Z" fill="#9F616A"/>
<path d="M238.777 180.289L245.91 171.034C245.969 170.901 251.886 157.687 257.015 151.946C262.277 146.056 266.419 149.068 266.46 149.1L266.563 149.178L266.85 170.927L247.101 194.508L238.777 180.289Z" fill="#E4E4E4"/>
<path d="M293.961 121.416C295.024 114.867 290.574 108.698 284.021 107.635C277.468 106.572 271.294 111.019 270.231 117.568C269.167 124.116 273.617 130.286 280.17 131.348C286.723 132.411 292.898 127.964 293.961 121.416Z" fill="#9F616A"/>
<path d="M271.106 117.708C271.106 117.708 271.01 113.485 270.476 111.617C269.942 109.748 268.873 108.147 269.407 108.147C269.942 108.147 270.209 106.812 270.209 106.812C270.209 106.812 270.743 106.545 271.01 106.812C271.277 107.079 271.544 104.944 271.544 104.944C271.544 104.944 271.811 104.143 272.078 104.677C272.346 105.211 272.346 104.944 272.613 104.143C272.88 103.342 274.216 102.808 274.216 102.808C274.216 102.808 279.291 103.075 280.092 102.007C280.894 100.94 289.976 101.741 291.845 103.075C293.715 104.41 301.996 109.215 300.66 113.219C299.325 117.222 295.48 126.441 294.517 127.366C292.993 128.827 291.938 129.354 284.729 130.788C283.319 131.068 276.117 126.466 276.117 125.665C276.117 124.865 276.986 122.325 275.59 121.977C273.481 121.45 273.243 124.115 272.709 123.314C272.175 122.513 271.106 117.708 271.106 117.708Z" fill="#2F2E41"/>
<path d="M277.947 343.529L253.264 343.528V343.216C253.264 340.67 254.276 338.228 256.078 336.428C257.88 334.628 260.323 333.616 262.871 333.616H262.872L267.381 330.198L275.793 333.616L277.948 333.617L277.947 343.529Z" fill="#2F2E41"/>
<path d="M406.256 344H2.07794C1.88076 344 1.69167 343.922 1.55224 343.782C1.41281 343.643 1.33447 343.454 1.33447 343.257C1.33447 343.06 1.41281 342.871 1.55224 342.732C1.69167 342.592 1.88076 342.514 2.07794 342.514H406.256C406.454 342.514 406.643 342.592 406.782 342.732C406.922 342.871 407 343.06 407 343.257C407 343.454 406.922 343.643 406.782 343.782C406.643 343.922 406.454 344 406.256 344Z" fill="#CACACA"/>
</g>
<defs>
<clipPath id="clip0_190_495">
<rect width="407" height="344" fill="white"/>
</clipPath>
</defs>
</svg>
