<svg width="576" height="405" viewBox="0 0 576 405" fill="none" xmlns="http://www.w3.org/2000/svg">
<g clip-path="url(#clip0_89_1312)">
<path d="M576 215.369C576 297.087 526.505 366.713 457.178 393.206C446.632 397.245 435.746 400.235 424.664 402.137C394.176 407.369 362.917 404.399 333.829 393.505C264.064 367.229 214.207 297.368 214.24 215.329C214.24 110.835 295.225 26.0891 395.12 26.0891C432.873 26.0316 469.689 38.3913 500.365 61.4213C546.16 95.7556 576 151.914 576 215.369Z" fill="#E5E5E5"/>
<path d="M457.178 393.207C446.632 397.245 435.746 400.235 424.664 402.137C394.176 407.37 362.917 404.399 333.829 393.505L342.182 358.431L342.687 356.326L359.733 356.395L445.372 356.716L446.468 360.106L457.178 393.207Z" fill="#2F2E41"/>
<path d="M157.12 0.649414H0V186.692H157.12V0.649414Z" fill="#E6E6E6"/>
<path d="M154.044 4.58545H2.80151V182.757H154.044V4.58545Z" fill="white"/>
<path d="M78.5601 176.421C83.2422 176.421 87.0379 172.449 87.0379 167.55C87.0379 162.65 83.2422 158.678 78.5601 158.678C73.8779 158.678 70.0823 162.65 70.0823 167.55C70.0823 172.449 73.8779 176.421 78.5601 176.421Z" fill="#E6E6E6"/>
<path d="M77.1278 67.6538H28.4343V72.8665H77.1278V67.6538Z" fill="#E6E6E6"/>
<path d="M101.926 83.2744H28.4343V88.4871H101.926V83.2744Z" fill="#2954B1"/>
<path d="M94.7121 98.9927H28.4343V104.205H94.7121V98.9927Z" fill="#E6E6E6"/>
<path d="M130.781 114.295H28.4343V119.508H130.781V114.295Z" fill="#2954B1"/>
<path d="M112.909 128.87H29.4983V134.082H112.909V128.87Z" fill="#E6E6E6"/>
<path d="M223.419 303.378C224.017 304.02 224.565 304.71 225.059 305.442L301.855 303.476L310.814 286.345L337.289 297.114L324.243 329.055C323.19 331.635 321.364 333.788 319.042 335.191C316.719 336.593 314.025 337.17 311.363 336.833L224.595 325.865C222.548 328.576 219.761 330.571 216.604 331.585C213.448 332.598 210.071 332.582 206.923 331.538C203.776 330.494 201.006 328.472 198.984 325.741C196.961 323.01 195.781 319.699 195.6 316.249C195.419 312.799 196.246 309.373 197.972 306.427C199.697 303.481 202.238 301.155 205.258 299.757C208.278 298.359 211.633 297.957 214.876 298.603C218.12 299.249 221.099 300.913 223.416 303.374L223.419 303.378Z" fill="#9F616A"/>
<path d="M326.784 205.554L362.724 193.229L373.279 178.08L424.647 181.261L432.189 198.939L459.58 212.483L455.37 294.288L448.169 370.848C411.139 350.782 342.031 366.08 341.426 366.329L326.784 205.554Z" fill="#2954B1"/>
<path d="M334.467 316.283L297.911 300.978L298.066 300.297C298.223 299.608 313.782 231.573 315.848 220.639C318 209.248 325.863 206.099 326.196 205.971L326.44 205.877L340.907 210.485L347.261 262.727L334.467 316.283Z" fill="#2954B1"/>
<path d="M413.399 367.482C414.256 367.461 415.113 367.51 415.963 367.63L466.799 307.363L460.886 288.845L486.433 275.852L499.947 307.578C501.039 310.141 501.307 313.006 500.71 315.742C500.114 318.477 498.686 320.937 496.64 322.751L429.961 381.871C430.469 385.285 429.971 388.78 428.535 391.891C427.099 395.002 424.791 397.582 421.919 399.287C419.048 400.993 415.748 401.743 412.459 401.438C409.17 401.133 406.048 399.787 403.508 397.58C400.967 395.373 399.129 392.409 398.238 389.082C397.347 385.755 397.444 382.223 398.518 378.956C399.592 375.688 401.591 372.84 404.249 370.791C406.907 368.741 410.099 367.587 413.399 367.482Z" fill="#9F616A"/>
<path d="M462.742 313.23L441.535 261.031L449.807 224.671L458.718 212.89C459.371 212.598 460.075 212.45 460.785 212.457C461.494 212.464 462.195 212.625 462.843 212.93C466.131 214.314 468.927 218.557 471.161 225.539L491.036 284.778L462.742 313.23Z" fill="#2954B1"/>
<path d="M352.718 158.738V119.385C352.696 112.46 353.978 105.598 356.49 99.1913C359.002 92.7847 362.696 86.9585 367.359 82.0456C372.023 77.1326 377.566 73.2291 383.672 70.5578C389.778 67.8865 396.326 66.4998 402.944 66.4769C409.561 66.4539 416.119 67.7952 422.241 70.4241C428.363 73.053 433.931 76.918 438.626 81.7985C443.321 86.679 447.051 92.4794 449.604 98.8685C452.157 105.258 453.482 112.11 453.504 119.035C453.504 119.152 453.504 119.268 453.504 119.385V158.738C453.502 160.616 452.788 162.416 451.519 163.744C450.25 165.072 448.529 165.819 446.734 165.821H359.487C357.692 165.819 355.972 165.072 354.703 163.744C353.434 162.416 352.72 160.616 352.718 158.738Z" fill="#2F2E41"/>
<path d="M392.755 164.904C413.16 164.904 429.701 147.595 429.701 126.242C429.701 104.89 413.16 87.5806 392.755 87.5806C372.351 87.5806 355.809 104.89 355.809 126.242C355.809 147.595 372.351 164.904 392.755 164.904Z" fill="#9F616A"/>
<path d="M340.796 122.533C340.808 111.473 345.012 100.87 352.485 93.05C359.958 85.2297 370.091 80.8308 380.659 80.8184H388.181C398.75 80.8308 408.882 85.2297 416.355 93.05C423.829 100.87 428.032 111.473 428.044 122.533V123.32H412.148L406.727 107.432L405.643 123.32H397.429L394.693 115.305L394.145 123.32H340.796V122.533Z" fill="#2F2E41"/>
<path d="M389.12 170.247C388.373 169.19 387.928 167.933 387.834 166.622C387.74 165.312 388.002 164 388.59 162.838C396.56 146.974 407.719 117.66 392.907 99.5821L391.845 98.2847H434.848V165.846L395.783 173.059C395.388 173.132 394.987 173.169 394.586 173.17C393.519 173.17 392.468 172.905 391.518 172.397C390.568 171.889 389.747 171.153 389.122 170.249L389.12 170.247Z" fill="#2F2E41"/>
<path d="M78.4234 15.1392C74.8578 15.139 71.3722 16.2452 68.4073 18.318C65.4425 20.3908 63.1316 23.3371 61.767 26.7842C60.4023 30.2313 60.0451 34.0245 60.7405 37.6841C61.436 41.3437 63.1528 44.7053 65.674 47.3438C68.1951 49.9823 71.4074 51.7792 74.9045 52.5074C78.4016 53.2355 82.0264 52.8621 85.3207 51.4344C88.615 50.0067 91.4308 47.5888 93.4119 44.4865C95.393 41.3842 96.4505 37.7368 96.4507 34.0056V34.0046C96.4507 31.5272 95.9844 29.074 95.0784 26.7851C94.1724 24.4962 92.8445 22.4165 91.1704 20.6647C89.4963 18.9129 87.5089 17.5233 85.3216 16.5752C83.1343 15.6271 80.79 15.1392 78.4225 15.1392H78.4234ZM78.4234 20.7983C79.493 20.7983 80.5386 21.1302 81.428 21.752C82.3173 22.3738 83.0104 23.2577 83.4198 24.2917C83.8291 25.3258 83.9362 26.4637 83.7275 27.5614C83.5189 28.6592 83.0038 29.6676 82.2475 30.459C81.4912 31.2505 80.5276 31.7894 79.4785 32.0078C78.4295 32.2262 77.3421 32.1141 76.3539 31.6858C75.3657 31.2575 74.5211 30.5321 73.9269 29.6015C73.3326 28.6708 73.0155 27.5767 73.0155 26.4574C73.0155 24.9565 73.5852 23.5171 74.5994 22.4558C75.6136 21.3945 76.9891 20.7983 78.4234 20.7983ZM78.4234 48.0439C76.2869 48.0336 74.185 47.4781 72.3 46.4254C70.415 45.3728 68.804 43.8548 67.6065 42.0031C67.6934 38.23 74.8178 36.1531 78.4234 36.1531C82.0291 36.1531 89.1535 38.23 89.2404 42.0031C88.0416 43.8534 86.4302 45.3704 84.5456 46.4229C82.6609 47.4754 80.5596 48.0317 78.4234 48.0439Z" fill="#2954B1"/>
<path d="M78.6329 170.951C86.0599 156.708 103.852 147.689 118.406 155.819C124.957 159.477 130.165 165.95 131.818 173.599C133.737 182.486 129.694 190.959 125.521 198.425C123.257 202.477 120.775 206.447 118.9 210.721C116.959 215.148 115.572 220.263 117.033 225.078C118.349 229.416 121.647 232.572 125.259 234.891C129.246 237.353 133.487 239.335 137.9 240.798C146.984 243.96 156.566 245.257 166.12 244.619C170.868 244.282 175.576 243.485 180.184 242.24C185.086 240.932 189.897 239.274 194.807 237.995C203.004 235.865 212.351 234.805 220.125 239.085C227.677 243.245 231.057 251.944 232.102 260.407C234.032 276.035 228.111 292.252 217.42 303.196C212.291 308.447 205.836 312.785 198.806 314.559C192.672 316.108 184.795 316.009 179.914 311.21C174.466 305.855 175.748 297.267 180.074 291.617C185.597 284.407 194.952 282.676 203.3 282.5C212.797 282.301 222.285 283.781 231.776 282.861C236.409 282.483 240.955 281.336 245.243 279.462C249.012 277.727 252.45 275.292 255.391 272.275C261.251 266.318 265.202 258.382 267.167 250.131C269.534 240.208 269.018 229.779 267.181 219.812C266.202 214.672 264.942 209.596 263.406 204.608C262.772 202.503 259.595 203.404 260.234 205.523C265.891 224.293 269.045 245.996 258.116 263.423C253.593 270.814 246.547 276.121 238.415 278.263C228.956 280.723 219.03 279.507 209.414 279.141C200.27 278.793 190.23 279.169 182.392 284.742C175.962 289.313 171.464 298.007 173.408 306.215C175.282 314.13 182.551 318.145 189.822 318.764C197.45 319.414 204.956 316.735 211.363 312.545C224.689 303.831 233.55 288.505 235.404 272.256C236.371 263.79 235.387 254.67 231.718 246.985C229.785 242.825 226.776 239.316 223.032 236.855C219.299 234.46 214.988 233.282 210.658 232.865C200.82 231.917 191.368 235.451 182.036 238.155C177.269 239.602 172.382 240.578 167.441 241.07C162.645 241.486 157.821 241.404 153.04 240.825C148.297 240.239 143.622 239.153 139.087 237.584C134.643 236.147 130.388 234.134 126.421 231.592C122.921 229.25 119.894 225.896 119.722 221.325C119.535 216.369 121.924 211.733 124.195 207.554C128.682 199.3 134.226 191.226 135.396 181.563C136.421 173.11 133.17 164.779 127.558 158.75C124.745 155.69 121.358 153.271 117.61 151.644C113.862 150.017 109.834 149.217 105.777 149.295C97.4493 149.544 89.4758 153.334 83.3505 159.154C80.3126 162.042 77.7562 165.44 75.7865 169.209C74.7719 171.154 77.6106 172.892 78.6263 170.946L78.6329 170.951Z" fill="#3F3D56"/>
</g>
<defs>
<clipPath id="clip0_89_1312">
<rect width="576" height="404" fill="white" transform="translate(0 0.649414)"/>
</clipPath>
</defs>
</svg>
