<svg width="633" height="618" viewBox="0 0 633 618" fill="none" xmlns="http://www.w3.org/2000/svg">
<ellipse opacity="0.4" cx="312.72" cy="327.475" rx="291.598" ry="290.174" fill="#2954B1"/>
<path d="M632.5 304.71C632.5 472.763 507.482 608.921 353.353 608.921C199.223 608.921 74.2053 472.763 74.2053 304.71C74.2053 136.658 199.223 0.5 353.353 0.5C507.482 0.5 632.5 136.658 632.5 304.71Z" stroke="#2954B1"/>
<g clip-path="url(#clip0_4656_30)">
<path d="M576 347.369C576 429.087 526.505 498.713 457.178 525.206C446.632 529.245 435.746 532.235 424.664 534.137C394.176 539.369 362.917 536.399 333.829 525.505C264.064 499.229 214.207 429.368 214.24 347.329C214.24 242.835 295.225 158.089 395.12 158.089C432.873 158.032 469.689 170.391 500.365 193.421C546.16 227.756 576 283.914 576 347.369Z" fill="#E5E5E5"/>
<path d="M457.178 525.207C446.632 529.245 435.746 532.235 424.664 534.137C394.176 539.37 362.917 536.399 333.829 525.505L342.182 490.431L342.687 488.326L359.733 488.395L445.372 488.716L446.468 492.106L457.178 525.207Z" fill="#2F2E41"/>
<path d="M157.12 132.649H0V318.692H157.12V132.649Z" fill="#E6E6E6"/>
<path d="M154.044 136.585H2.80151V314.757H154.044V136.585Z" fill="white"/>
<path d="M78.5601 308.421C83.2422 308.421 87.0379 304.449 87.0379 299.55C87.0379 294.65 83.2422 290.678 78.5601 290.678C73.8779 290.678 70.0823 294.65 70.0823 299.55C70.0823 304.449 73.8779 308.421 78.5601 308.421Z" fill="#E6E6E6"/>
<path d="M77.1278 199.654H28.4343V204.866H77.1278V199.654Z" fill="#E6E6E6"/>
<path d="M101.926 215.274H28.4343V220.487H101.926V215.274Z" fill="#2954B1"/>
<path d="M94.7121 230.993H28.4343V236.205H94.7121V230.993Z" fill="#E6E6E6"/>
<path d="M130.781 246.295H28.4343V251.508H130.781V246.295Z" fill="#2954B1"/>
<path d="M112.909 260.87H29.4983V266.082H112.909V260.87Z" fill="#E6E6E6"/>
<path d="M223.419 435.378C224.017 436.02 224.565 436.71 225.059 437.442L301.855 435.476L310.814 418.345L337.289 429.114L324.243 461.055C323.19 463.635 321.364 465.788 319.042 467.191C316.719 468.593 314.025 469.17 311.363 468.833L224.595 457.865C222.548 460.576 219.761 462.571 216.604 463.585C213.448 464.598 210.071 464.582 206.923 463.538C203.776 462.494 201.006 460.472 198.984 457.741C196.961 455.01 195.781 451.699 195.6 448.249C195.419 444.799 196.246 441.373 197.972 438.427C199.697 435.481 202.238 433.155 205.258 431.757C208.278 430.359 211.633 429.957 214.876 430.603C218.12 431.249 221.099 432.913 223.416 435.374L223.419 435.378Z" fill="#9F616A"/>
<path d="M326.784 337.554L362.724 325.229L373.279 310.08L424.647 313.261L432.189 330.939L459.58 344.483L455.37 426.288L448.169 502.848C411.139 482.782 342.031 498.08 341.426 498.329L326.784 337.554Z" fill="#2954B1"/>
<path d="M334.467 448.283L297.911 432.978L298.066 432.297C298.223 431.608 313.782 363.573 315.848 352.639C318 341.248 325.863 338.099 326.196 337.971L326.44 337.877L340.907 342.485L347.261 394.727L334.467 448.283Z" fill="#2954B1"/>
<path d="M413.399 499.482C414.256 499.461 415.113 499.51 415.963 499.63L466.799 439.363L460.886 420.845L486.433 407.852L499.947 439.578C501.039 442.141 501.307 445.006 500.71 447.742C500.114 450.477 498.686 452.937 496.64 454.751L429.961 513.871C430.469 517.285 429.971 520.78 428.535 523.891C427.099 527.002 424.791 529.582 421.919 531.287C419.048 532.993 415.748 533.743 412.459 533.438C409.17 533.133 406.048 531.787 403.508 529.58C400.967 527.373 399.129 524.409 398.238 521.082C397.347 517.755 397.444 514.223 398.518 510.956C399.592 507.688 401.591 504.84 404.249 502.791C406.907 500.741 410.099 499.587 413.399 499.482Z" fill="#9F616A"/>
<path d="M462.742 445.23L441.535 393.031L449.807 356.671L458.718 344.89C459.371 344.598 460.075 344.45 460.785 344.457C461.494 344.464 462.195 344.625 462.843 344.93C466.131 346.314 468.927 350.557 471.161 357.539L491.036 416.778L462.742 445.23Z" fill="#2954B1"/>
<path d="M352.718 290.738V251.385C352.696 244.46 353.978 237.598 356.49 231.191C359.002 224.785 362.696 218.959 367.359 214.046C372.023 209.133 377.566 205.229 383.672 202.558C389.778 199.886 396.326 198.5 402.944 198.477C409.561 198.454 416.119 199.795 422.241 202.424C428.363 205.053 433.931 208.918 438.626 213.799C443.321 218.679 447.051 224.479 449.604 230.869C452.157 237.258 453.482 244.11 453.504 251.035C453.504 251.152 453.504 251.268 453.504 251.385V290.738C453.502 292.616 452.788 294.416 451.519 295.744C450.25 297.072 448.529 297.819 446.734 297.821H359.487C357.692 297.819 355.972 297.072 354.703 295.744C353.434 294.416 352.72 292.616 352.718 290.738Z" fill="#2F2E41"/>
<path d="M392.755 296.904C413.16 296.904 429.701 279.595 429.701 258.242C429.701 236.89 413.16 219.581 392.755 219.581C372.351 219.581 355.809 236.89 355.809 258.242C355.809 279.595 372.351 296.904 392.755 296.904Z" fill="#9F616A"/>
<path d="M340.796 254.533C340.808 243.473 345.012 232.87 352.485 225.05C359.958 217.23 370.091 212.831 380.659 212.818H388.181C398.75 212.831 408.882 217.23 416.355 225.05C423.829 232.87 428.032 243.473 428.044 254.533V255.32H412.148L406.727 239.432L405.643 255.32H397.429L394.693 247.305L394.145 255.32H340.796V254.533Z" fill="#2F2E41"/>
<path d="M389.12 302.247C388.373 301.19 387.928 299.933 387.834 298.622C387.74 297.312 388.002 296 388.59 294.838C396.56 278.974 407.719 249.66 392.907 231.582L391.845 230.285H434.848V297.846L395.783 305.059C395.388 305.132 394.987 305.169 394.586 305.17C393.519 305.17 392.468 304.905 391.518 304.397C390.568 303.889 389.747 303.153 389.122 302.249L389.12 302.247Z" fill="#2F2E41"/>
<path d="M78.4234 147.139C74.8578 147.139 71.3722 148.245 68.4073 150.318C65.4425 152.391 63.1316 155.337 61.767 158.784C60.4023 162.231 60.0451 166.025 60.7405 169.684C61.436 173.344 63.1528 176.705 65.674 179.344C68.1951 181.982 71.4074 183.779 74.9045 184.507C78.4016 185.235 82.0264 184.862 85.3207 183.434C88.615 182.007 91.4308 179.589 93.4119 176.486C95.393 173.384 96.4505 169.737 96.4507 166.006V166.005C96.4507 163.527 95.9844 161.074 95.0784 158.785C94.1724 156.496 92.8445 154.417 91.1704 152.665C89.4963 150.913 87.5089 149.523 85.3216 148.575C83.1343 147.627 80.79 147.139 78.4225 147.139H78.4234ZM78.4234 152.798C79.493 152.798 80.5386 153.13 81.428 153.752C82.3173 154.374 83.0104 155.258 83.4198 156.292C83.8291 157.326 83.9362 158.464 83.7275 159.561C83.5189 160.659 83.0038 161.668 82.2475 162.459C81.4912 163.25 80.5276 163.789 79.4785 164.008C78.4295 164.226 77.3421 164.114 76.3539 163.686C75.3657 163.257 74.5211 162.532 73.9269 161.601C73.3326 160.671 73.0155 159.577 73.0155 158.457C73.0155 156.957 73.5852 155.517 74.5994 154.456C75.6136 153.395 76.9891 152.798 78.4234 152.798ZM78.4234 180.044C76.2869 180.034 74.185 179.478 72.3 178.425C70.415 177.373 68.804 175.855 67.6065 174.003C67.6934 170.23 74.8178 168.153 78.4234 168.153C82.0291 168.153 89.1535 170.23 89.2404 174.003C88.0416 175.853 86.4302 177.37 84.5456 178.423C82.6609 179.475 80.5596 180.032 78.4234 180.044Z" fill="#2954B1"/>
<path d="M78.6329 302.951C86.0599 288.708 103.852 279.689 118.406 287.819C124.957 291.477 130.165 297.95 131.818 305.599C133.737 314.486 129.694 322.959 125.521 330.425C123.257 334.477 120.775 338.447 118.9 342.721C116.959 347.148 115.572 352.263 117.033 357.078C118.349 361.416 121.647 364.572 125.259 366.891C129.246 369.353 133.487 371.335 137.9 372.798C146.984 375.96 156.566 377.257 166.12 376.619C170.868 376.282 175.576 375.485 180.184 374.24C185.086 372.932 189.897 371.274 194.807 369.995C203.004 367.865 212.351 366.805 220.125 371.085C227.677 375.245 231.057 383.944 232.102 392.407C234.032 408.035 228.111 424.252 217.42 435.196C212.291 440.447 205.836 444.785 198.806 446.559C192.672 448.108 184.795 448.009 179.914 443.21C174.466 437.855 175.748 429.267 180.074 423.617C185.597 416.407 194.952 414.676 203.3 414.5C212.797 414.301 222.285 415.781 231.776 414.861C236.409 414.483 240.955 413.336 245.243 411.462C249.012 409.727 252.45 407.292 255.391 404.275C261.251 398.318 265.202 390.382 267.167 382.131C269.534 372.208 269.018 361.779 267.181 351.812C266.202 346.672 264.942 341.596 263.406 336.608C262.772 334.503 259.595 335.404 260.234 337.523C265.891 356.293 269.045 377.996 258.116 395.423C253.593 402.814 246.547 408.121 238.415 410.263C228.956 412.723 219.03 411.507 209.414 411.141C200.27 410.793 190.23 411.169 182.392 416.742C175.962 421.313 171.464 430.007 173.408 438.215C175.282 446.13 182.551 450.145 189.822 450.764C197.45 451.414 204.956 448.735 211.363 444.545C224.689 435.831 233.55 420.505 235.404 404.256C236.371 395.79 235.387 386.67 231.718 378.985C229.785 374.825 226.776 371.316 223.032 368.855C219.299 366.46 214.988 365.282 210.658 364.865C200.82 363.917 191.368 367.451 182.036 370.155C177.269 371.602 172.382 372.578 167.441 373.07C162.645 373.486 157.821 373.404 153.04 372.825C148.297 372.239 143.622 371.153 139.087 369.584C134.643 368.147 130.388 366.134 126.421 363.592C122.921 361.25 119.894 357.896 119.722 353.325C119.535 348.369 121.924 343.733 124.195 339.554C128.682 331.3 134.226 323.226 135.396 313.563C136.421 305.11 133.17 296.779 127.558 290.75C124.745 287.69 121.358 285.271 117.61 283.644C113.862 282.017 109.834 281.217 105.777 281.295C97.4493 281.544 89.4758 285.334 83.3505 291.154C80.3126 294.042 77.7562 297.44 75.7865 301.209C74.7719 303.154 77.6106 304.892 78.6263 302.946L78.6329 302.951Z" fill="#3F3D56"/>
</g>
<defs>
<clipPath id="clip0_4656_30">
<rect width="576" height="404" fill="white" transform="translate(0 132.649)"/>
</clipPath>
</defs>
</svg>
