<svg width="21" height="24" viewBox="0 0 21 24" fill="none" xmlns="http://www.w3.org/2000/svg">
<circle cx="10.5" cy="11.1719" r="10" stroke="#2954B1" stroke-opacity="0.6"/>
<path d="M12.25 8.87187C12.25 8.41187 12.075 8.02187 11.725 7.70187C11.385 7.38187 10.95 7.22187 10.42 7.22187C9.56 7.22187 8.86 7.59187 8.32 8.33187L7.6 7.53687C7.88 7.08687 8.275 6.72187 8.785 6.44187C9.305 6.16187 9.875 6.02187 10.495 6.02187C11.435 6.02187 12.175 6.27187 12.715 6.77187C13.265 7.27187 13.54 7.88687 13.54 8.61687C13.54 9.07687 13.46 9.49187 13.3 9.86187C13.14 10.2319 12.94 10.5219 12.7 10.7319C12.46 10.9419 12.205 11.1569 11.935 11.3769C11.675 11.5969 11.435 11.7969 11.215 11.9769C11.005 12.1569 10.84 12.3869 10.72 12.6669C10.61 12.9469 10.59 13.2669 10.66 13.6269L9.58 13.6419C9.48 13.1219 9.5 12.6769 9.64 12.3069C9.79 11.9369 10.005 11.6369 10.285 11.4069C10.565 11.1769 10.85 10.9569 11.14 10.7469C11.44 10.5369 11.7 10.2769 11.92 9.96687C12.14 9.64687 12.25 9.28187 12.25 8.87187ZM9.28 15.8619C9.28 15.6519 9.36 15.4669 9.52 15.3069C9.68 15.1469 9.89 15.0669 10.15 15.0669C10.37 15.0669 10.555 15.1519 10.705 15.3219C10.865 15.4819 10.945 15.6619 10.945 15.8619C10.945 16.0919 10.87 16.2919 10.72 16.4619C10.57 16.6319 10.38 16.7169 10.15 16.7169C9.89 16.7169 9.68 16.6319 9.52 16.4619C9.36 16.2919 9.28 16.0919 9.28 15.8619Z" fill="#2954B1" fill-opacity="0.6"/>
</svg>
